REM DIRINDEX 1\2,1\3,1\4,1\5
REM DIRNAME folder01,folder02,folder03,folder04,folder05
TITLE ""
FILE "1Q_t_0910-0919.mp3" MP3
  TRACK 01 AUDIO
    TITLE "3:cjc004_3633"
    INDEX 01 00:00:00
  TRACK 02 AUDIO
    TITLE "0:"
    INDEX 01 00:01:15
  TRACK 03 AUDIO
    TITLE "4:cjc004_3634"
    INDEX 01 00:01:44
  TRACK 04 AUDIO
    TITLE "0:"
    INDEX 01 00:03:23
  TRACK 05 AUDIO
    TITLE "5:cjc004_3635"
    INDEX 01 00:03:51
  TRACK 06 AUDIO
    TITLE "0:"
    INDEX 01 00:08:13
  TRACK 07 AUDIO
    TITLE "3:cjc004_3636"
    INDEX 01 00:08:64
  TRACK 08 AUDIO
    TITLE "0:"
    INDEX 01 00:09:59
  TRACK 09 AUDIO
    TITLE "4:cjc004_3637"
    INDEX 01 00:10:14
  TRACK 10 AUDIO
    TITLE "0:"
    INDEX 01 00:12:34
  TRACK 11 AUDIO
    TITLE "5:cjc004_3638"
    INDEX 01 00:12:67
  TRACK 12 AUDIO
    TITLE "0:"
    INDEX 01 00:17:21
  TRACK 13 AUDIO
    TITLE "3:cjc004_3639"
    INDEX 01 00:17:74
  TRACK 14 AUDIO
    TITLE "0:"
    INDEX 01 00:18:70
  TRACK 15 AUDIO
    TITLE "4:cjc004_3640"
    INDEX 01 00:19:20
  TRACK 16 AUDIO
    TITLE "0:"
    INDEX 01 00:20:39
  TRACK 17 AUDIO
    TITLE "5:cjc004_3641"
    INDEX 01 00:20:63
  TRACK 18 AUDIO
    TITLE "0:"
    INDEX 01 00:24:63
  TRACK 19 AUDIO
    TITLE "3:cjc004_3642"
    INDEX 01 00:25:43
  TRACK 20 AUDIO
    TITLE "0:"
    INDEX 01 00:26:60
  TRACK 21 AUDIO
    TITLE "4:cjc004_3643"
    INDEX 01 00:27:16
  TRACK 22 AUDIO
    TITLE "0:"
    INDEX 01 00:28:33
  TRACK 23 AUDIO
    TITLE "5:cjc004_3644"
    INDEX 01 00:28:59
  TRACK 24 AUDIO
    TITLE "0:"
    INDEX 01 00:33:24
  TRACK 25 AUDIO
    TITLE "3:cjc004_3645"
    INDEX 01 00:33:73
  TRACK 26 AUDIO
    TITLE "0:"
    INDEX 01 00:35:00
  TRACK 27 AUDIO
    TITLE "4:cjc004_3646"
    INDEX 01 00:35:37
  TRACK 28 AUDIO
    TITLE "0:"
    INDEX 01 00:36:60
  TRACK 29 AUDIO
    TITLE "5:cjc004_3647"
    INDEX 01 00:37:14
  TRACK 30 AUDIO
    TITLE "0:"
    INDEX 01 00:41:67
  TRACK 31 AUDIO
    TITLE "3:cjc004_3648"
    INDEX 01 00:42:43
  TRACK 32 AUDIO
    TITLE "0:"
    INDEX 01 00:43:56
  TRACK 33 AUDIO
    TITLE "4:cjc004_3649"
    INDEX 01 00:44:07
  TRACK 34 AUDIO
    TITLE "0:"
    INDEX 01 00:45:49
  TRACK 35 AUDIO
    TITLE "5:cjc004_3650"
    INDEX 01 00:46:00
  TRACK 36 AUDIO
    TITLE "0:"
    INDEX 01 00:49:37
  TRACK 37 AUDIO
    TITLE "3:cjc004_3651"
    INDEX 01 00:50:17
  TRACK 38 AUDIO
    TITLE "0:"
    INDEX 01 00:51:22
  TRACK 39 AUDIO
    TITLE "4:cjc004_3652"
    INDEX 01 00:51:46
  TRACK 40 AUDIO
    TITLE "0:"
    INDEX 01 00:53:15
  TRACK 41 AUDIO
    TITLE "5:cjc004_3653"
    INDEX 01 00:53:43
  TRACK 42 AUDIO
    TITLE "0:"
    INDEX 01 00:57:43
  TRACK 43 AUDIO
    TITLE "3:cjc004_3654"
    INDEX 01 00:58:22
  TRACK 44 AUDIO
    TITLE "0:"
    INDEX 01 00:59:34
  TRACK 45 AUDIO
    TITLE "4:cjc004_3655"
    INDEX 01 00:59:59
  TRACK 46 AUDIO
    TITLE "0:"
    INDEX 01 01:00:72
  TRACK 47 AUDIO
    TITLE "5:cjc004_3656"
    INDEX 01 01:01:21
  TRACK 48 AUDIO
    TITLE "0:"
    INDEX 01 01:06:42
  TRACK 49 AUDIO
    TITLE "3:cjc004_3657"
    INDEX 01 01:07:23
  TRACK 50 AUDIO
    TITLE "0:"
    INDEX 01 01:08:25
  TRACK 51 AUDIO
    TITLE "4:cjc004_3658"
    INDEX 01 01:08:52
  TRACK 52 AUDIO
    TITLE "0:"
    INDEX 01 01:09:73
  TRACK 53 AUDIO
    TITLE "5:cjc004_3659"
    INDEX 01 01:10:20
  TRACK 54 AUDIO
    TITLE "0:"
    INDEX 01 01:15:64
  TRACK 55 AUDIO
    TITLE "3:cjc004_3660"
    INDEX 01 01:16:40
  TRACK 56 AUDIO
    TITLE "0:"
    INDEX 01 01:17:69
  TRACK 57 AUDIO
    TITLE "4:cjc004_3661"
    INDEX 01 01:18:21
  TRACK 58 AUDIO
    TITLE "0:"
    INDEX 01 01:19:48
  TRACK 59 AUDIO
    TITLE "5:cjc004_3662"
    INDEX 01 01:19:72
  TRACK 60 AUDIO
    TITLE "0:"
    INDEX 01 01:25:66
